<svg width="301" height="128" viewBox="0 0 301 128" fill="none" xmlns="http://www.w3.org/2000/svg">
<path d="M0.920898 19.4462H9.77399V29.4838C12.4216 25.8915 15.8681 22.965 19.841 20.9357C23.8139 18.9063 28.2041 17.8299 32.6646 17.7914C47.8858 17.7914 60.0404 30.0746 60.0404 48.2597C60.0404 66.4449 47.8887 78.7251 32.6646 78.7251C27.2934 78.7142 22.0378 77.1638 17.5197 74.2575C14.5825 72.3446 12.0332 69.8934 10.006 67.0328V100.687H0.920898V19.4462ZM50.8378 48.2509C50.8378 34.3159 42.4605 25.9302 30.5409 25.9302C18.4978 25.9302 10.009 34.551 10.009 48.2509C10.009 61.8303 18.5067 70.5687 30.5409 70.5687C42.4605 70.5775 50.8378 62.0743 50.8378 48.2597V48.2509Z" fill="white"/>
<path d="M80.5841 27.1206C81.8989 25.2749 83.5357 23.6818 85.416 22.4178C88.7421 20.2324 92.6559 19.1156 96.6336 19.2169H104.068V27.244H94.7449C86.2472 27.244 80.819 31.8498 80.819 41.7698V77.0703H71.731V19.4609H80.5811L80.5841 27.1206Z" fill="white"/>
<path d="M137.874 17.7914C155.339 17.7914 167.376 30.3097 167.376 48.2597C167.376 66.0893 155.333 78.7251 137.874 78.7251C120.544 78.7251 108.5 66.0863 108.5 48.2597C108.492 30.3097 120.529 17.7914 137.874 17.7914ZM137.874 70.5775C150.266 70.5775 158.291 61.3659 158.291 48.2597C158.291 35.0331 150.266 25.939 137.874 25.939C125.481 25.939 117.459 35.3858 117.459 48.2597C117.459 61.7186 125.484 70.5775 137.874 70.5775Z" fill="white"/>
<path d="M209.474 77.3055C208.319 78.1683 206.916 78.6344 205.474 78.6344C204.033 78.6344 202.63 78.1683 201.475 77.3055L181.904 59.7522C180.503 58.7014 179.365 57.3394 178.58 55.7735C177.795 54.2076 177.384 52.4806 177.38 50.7287V19.4462H186.604V50.7287C186.604 51.378 186.756 52.0183 187.046 52.5989C187.337 53.1794 187.758 53.6843 188.278 54.0736L205.473 70.0014L222.871 54.0736C223.389 53.6837 223.811 53.1787 224.101 52.5983C224.392 52.0178 224.544 51.3779 224.545 50.7287V19.4462H233.577V50.7287C233.573 52.4802 233.162 54.2068 232.378 55.7726C231.593 57.3384 230.457 58.7007 229.057 59.7522L209.474 77.3055Z" fill="white"/>
<path d="M201.893 1.20251e-05H221.241C222.098 1.20251e-05 222.92 0.340652 223.526 0.946992C224.131 1.55333 224.472 2.3757 224.472 3.2332V19.3991H198.653V3.2332C198.653 2.80787 198.737 2.38672 198.9 1.99388C199.063 1.60103 199.301 1.24421 199.602 0.94387C199.903 0.643526 200.26 0.405553 200.654 0.24359C201.047 0.0816265 201.468 -0.00114797 201.893 1.20251e-05Z" fill="#00FF99"/>
<path d="M290.729 77.0615V68.0203C290.729 70.8185 285.644 78.7751 271.049 78.7751C253.254 78.7751 245.412 70.066 245.412 50.6317V19.4226H254.591V50.6434C254.591 66.3155 260.912 70.6098 271.166 70.6098C282.545 70.6098 290.482 63.6849 290.482 50.6434V19.4226H299.547V77.0615H290.729Z" fill="white"/>
<path d="M177.38 127.323V107.489H179.598V109.82H180C180.42 109.049 181.026 108.396 181.763 107.921C182.577 107.364 183.713 107.086 185.17 107.086C186.342 107.074 187.495 107.381 188.506 107.974C189.517 108.568 190.348 109.425 190.91 110.454C191.544 111.649 191.857 112.988 191.817 114.34V114.713C191.855 116.062 191.552 117.399 190.936 118.599C190.39 119.646 189.556 120.515 188.533 121.103C187.512 121.684 186.356 121.982 185.182 121.968C184.336 121.989 183.493 121.857 182.694 121.58C182.082 121.362 181.52 121.024 181.04 120.586C180.652 120.227 180.322 119.809 180.062 119.349H179.66V127.323H177.38ZM184.574 119.954C185.23 119.979 185.884 119.868 186.496 119.628C187.107 119.388 187.662 119.023 188.125 118.558C189.036 117.625 189.491 116.325 189.491 114.658V114.399C189.491 112.729 189.036 111.429 188.125 110.499C187.662 110.033 187.107 109.668 186.496 109.428C185.885 109.187 185.23 109.077 184.574 109.102C183.918 109.08 183.264 109.192 182.652 109.433C182.041 109.673 181.486 110.035 181.02 110.499C180.091 111.427 179.626 112.727 179.624 114.399V114.658C179.624 116.327 180.09 117.627 181.02 118.558C181.486 119.021 182.042 119.383 182.653 119.623C183.264 119.863 183.918 119.976 184.574 119.954V119.954Z" fill="white"/>
<path d="M198.785 121.967C197.867 121.979 196.957 121.803 196.109 121.45C195.348 121.14 194.691 120.622 194.211 119.954C193.734 119.251 193.492 118.414 193.518 117.564C193.484 116.718 193.728 115.884 194.211 115.19C194.696 114.547 195.355 114.058 196.109 113.779C196.972 113.451 197.889 113.289 198.811 113.303H203.558V112.268C203.58 111.836 203.513 111.405 203.361 111.001C203.21 110.596 202.977 110.227 202.677 109.916C202.089 109.329 201.208 109.052 200.071 109.052C198.935 109.052 198.059 109.326 197.428 109.872C196.776 110.452 196.324 111.222 196.135 112.074L194.006 111.383C194.231 110.606 194.602 109.879 195.099 109.24C195.632 108.57 196.318 108.037 197.099 107.686C198.045 107.27 199.071 107.069 200.104 107.098C201.907 107.098 203.307 107.563 204.304 108.494C205.301 109.425 205.799 110.735 205.799 112.424V118.784C205.799 119.372 206.069 119.648 206.607 119.648H207.899V121.577H205.914C205.356 121.603 204.809 121.413 204.389 121.045C204.195 120.863 204.042 120.642 203.94 120.396C203.839 120.15 203.792 119.885 203.802 119.619V119.457H203.455C203.212 119.865 202.928 120.246 202.606 120.595C202.2 121.023 201.705 121.357 201.155 121.574C200.398 121.858 199.593 121.992 198.785 121.967V121.967ZM199.043 120.01C199.639 120.036 200.234 119.944 200.794 119.739C201.354 119.534 201.868 119.221 202.307 118.817C203.141 118.019 203.558 116.901 203.558 115.463V115.145H198.899C198.114 115.113 197.337 115.318 196.67 115.733C196.383 115.926 196.151 116.189 195.996 116.498C195.842 116.808 195.77 117.152 195.789 117.497C195.775 117.855 195.85 118.212 196.009 118.534C196.167 118.856 196.404 119.133 196.696 119.34C197.386 119.811 198.209 120.046 199.043 120.01V120.01Z" fill="white"/>
<path d="M209.571 121.565V107.489H211.786V109.217H212.188C212.402 108.645 212.809 108.165 213.339 107.862C213.978 107.548 214.685 107.4 215.395 107.433H217.064V109.49H215.252C214.354 109.45 213.474 109.753 212.793 110.34C212.17 110.904 211.859 111.786 211.859 112.985V121.562L209.571 121.565Z" fill="white"/>
<path d="M224.933 121.967C223.655 121.987 222.394 121.683 221.264 121.086C220.189 120.507 219.301 119.633 218.706 118.567C218.057 117.377 217.734 116.036 217.769 114.681V114.364C217.73 113.003 218.053 111.657 218.706 110.463C219.304 109.402 220.191 108.534 221.264 107.959C222.394 107.361 223.655 107.058 224.933 107.077C226.122 107.043 227.302 107.3 228.37 107.827C229.274 108.286 230.046 108.969 230.614 109.811C231.148 110.608 231.506 111.509 231.665 112.456L229.448 112.917C229.359 112.244 229.129 111.597 228.772 111.019C228.413 110.437 227.906 109.96 227.303 109.637C226.583 109.27 225.782 109.091 224.974 109.117C224.094 109.102 223.225 109.321 222.457 109.752C221.71 110.178 221.099 110.807 220.694 111.565C220.243 112.436 220.021 113.407 220.048 114.387V114.646C220.021 115.625 220.243 116.595 220.694 117.464C221.098 118.224 221.71 118.853 222.457 119.278C223.225 119.709 224.094 119.928 224.974 119.913C226.372 119.913 227.441 119.548 228.182 118.819C228.919 118.09 229.399 117.139 229.547 116.112L231.792 116.603C231.572 117.54 231.182 118.428 230.64 119.222C230.066 120.064 229.289 120.747 228.381 121.209C227.311 121.739 226.127 121.999 224.933 121.967Z" fill="white"/>
<path d="M240.668 121.967C239.364 121.996 238.076 121.684 236.929 121.062C235.868 120.471 234.999 119.586 234.426 118.514C233.816 117.342 233.513 116.034 233.545 114.713V114.369C233.512 113.042 233.815 111.727 234.426 110.548C234.993 109.483 235.851 108.6 236.9 108.003C237.996 107.417 239.217 107.105 240.46 107.095C241.702 107.085 242.929 107.376 244.034 107.944C245.047 108.509 245.875 109.354 246.419 110.378C247.016 111.523 247.313 112.8 247.283 114.09V115.125H235.807C235.864 116.641 236.353 117.827 237.276 118.681C238.215 119.542 239.453 120.002 240.727 119.963C241.937 119.963 242.867 119.685 243.517 119.128C244.158 118.585 244.67 117.907 245.015 117.141L246.969 118.091C246.651 118.735 246.25 119.335 245.776 119.875C245.223 120.504 244.547 121.014 243.791 121.374C242.808 121.807 241.741 122.01 240.668 121.967V121.967ZM235.833 113.247H244.983C244.907 111.942 244.46 110.925 243.644 110.196C242.78 109.448 241.665 109.058 240.524 109.102C239.369 109.056 238.239 109.446 237.358 110.196C236.499 110.996 235.957 112.079 235.833 113.247V113.247Z" fill="white"/>
<path d="M249.815 121.565V101.416H252.083V121.565H249.815Z" fill="white"/>
<path d="M259.74 121.967C258.822 121.979 257.912 121.803 257.064 121.45C256.304 121.14 255.646 120.622 255.167 119.954C254.691 119.25 254.449 118.414 254.476 117.564C254.442 116.719 254.684 115.885 255.167 115.19C255.651 114.547 256.31 114.058 257.064 113.779C257.928 113.451 258.846 113.289 259.769 113.303H264.513V112.268C264.535 111.836 264.468 111.405 264.316 111.001C264.165 110.596 263.932 110.227 263.632 109.917C263.045 109.34 262.176 109.052 261.027 109.052C259.877 109.052 258.996 109.326 258.383 109.872C257.732 110.452 257.279 111.222 257.091 112.074L254.961 111.383C255.186 110.606 255.557 109.879 256.054 109.24C256.587 108.57 257.273 108.037 258.054 107.686C259 107.27 260.026 107.069 261.059 107.098C262.862 107.098 264.263 107.563 265.259 108.494C266.256 109.425 266.759 110.728 266.769 112.403V118.764C266.769 119.352 267.039 119.628 267.577 119.628H268.869V121.556H266.887C266.328 121.583 265.78 121.393 265.359 121.024C265.165 120.843 265.011 120.621 264.91 120.375C264.809 120.129 264.762 119.864 264.772 119.598V119.457H264.419C264.176 119.865 263.892 120.246 263.57 120.595C263.164 121.023 262.669 121.357 262.119 121.574C261.36 121.859 260.551 121.993 259.74 121.967ZM259.999 120.01C260.594 120.036 261.189 119.944 261.749 119.739C262.309 119.534 262.823 119.221 263.262 118.817C264.096 118.019 264.513 116.901 264.513 115.463V115.145H259.855C259.069 115.113 258.292 115.318 257.625 115.733C257.338 115.926 257.106 116.189 256.951 116.498C256.797 116.808 256.725 117.152 256.744 117.497C256.73 117.855 256.805 118.212 256.964 118.534C257.122 118.856 257.359 119.133 257.652 119.34C258.345 119.814 259.174 120.049 260.013 120.01H259.999Z" fill="white"/>
<path d="M276.078 121.967C274.909 121.978 273.758 121.68 272.741 121.103C271.713 120.518 270.874 119.648 270.326 118.599C269.709 117.399 269.406 116.062 269.445 114.713V114.34C269.405 112.996 269.709 111.663 270.326 110.469C270.879 109.428 271.71 108.561 272.726 107.965C273.744 107.376 274.902 107.071 276.078 107.083C276.924 107.062 277.768 107.193 278.568 107.471C279.177 107.688 279.739 108.02 280.222 108.45C280.616 108.81 280.946 109.233 281.2 109.702H281.603V101.413H283.873V121.562H281.658V119.231H281.256C280.821 119.997 280.21 120.648 279.473 121.13C278.668 121.69 277.536 121.969 276.078 121.967ZM276.683 119.954C277.339 119.979 277.994 119.868 278.605 119.628C279.217 119.387 279.773 119.023 280.237 118.558C281.147 117.625 281.603 116.325 281.603 114.658V114.399C281.603 112.729 281.147 111.429 280.237 110.498C279.271 109.601 278.002 109.102 276.684 109.102C275.366 109.102 274.097 109.601 273.131 110.498C272.199 111.427 271.734 112.727 271.736 114.399V114.658C271.736 116.327 272.201 117.627 273.131 118.558C273.597 119.021 274.152 119.383 274.763 119.623C275.374 119.863 276.027 119.976 276.683 119.954V119.954Z" fill="white"/>
<path d="M293.713 121.967C292.407 121.998 291.115 121.694 289.959 121.086C288.892 120.506 288.013 119.632 287.427 118.567C286.798 117.385 286.486 116.061 286.52 114.722V114.349C286.491 113.019 286.804 111.703 287.427 110.528C288.012 109.454 288.897 108.574 289.974 107.994C291.138 107.407 292.424 107.101 293.728 107.101C295.032 107.101 296.317 107.407 297.482 107.994C298.552 108.575 299.432 109.454 300.014 110.525C300.635 111.701 300.946 113.016 300.918 114.346V114.719C300.952 116.057 300.64 117.381 300.014 118.564C299.428 119.629 298.549 120.503 297.482 121.083C296.321 121.694 295.024 121.999 293.713 121.967V121.967ZM293.713 119.925C295.207 119.925 296.401 119.45 297.294 118.499C298.187 117.549 298.632 116.268 298.63 114.658V114.399C298.63 112.784 298.185 111.503 297.294 110.554C296.403 109.606 295.209 109.131 293.713 109.129C292.235 109.129 291.045 109.604 290.144 110.554C289.243 111.505 288.793 112.786 288.793 114.399V114.658C288.793 116.268 289.243 117.549 290.144 118.499C291.045 119.45 292.235 119.925 293.713 119.925V119.925Z" fill="white"/>
</svg>
