<svg width="1139" height="384" viewBox="0 0 1139 384" fill="none" xmlns="http://www.w3.org/2000/svg">
<path d="M852.4 74H753.9V12.4C753.9 5.59999 759.4 0 766.3 0H840C846.8 0 852.4 5.49999 852.4 12.4V74Z" fill="#00FF99"/>
<path d="M0 74.2H33.7V112.4C39.1 105.1 48.6 94.2 63.3 84.9C89.5 68.3 115 67.9 121 67.9C179 67.9 225.4 114.7 225.4 184C225.4 253.3 179.1 300.1 121 300.1C92 300.1 71.1 288.2 63.3 283.1C48.9 273.8 39.8 262.8 34.6 255.6V383.8H0V74.2ZM190.3 184C190.3 130.9 158.4 99 112.9 99C67 99 34.6 131.8 34.6 184C34.6 235.7 67 269 112.9 269C158.3 269.1 190.3 236.7 190.3 184Z" fill="#FF4853"/>
<path d="M303.7 103.5C307.4 98.3 313.3 91.5 322.1 85.6C339.5 73.9 357.4 73.2 364.9 73.4H393.2V104H357.7C325.3 104 304.6 121.5 304.6 159.3V293.8H270V74.2H303.7V103.5Z" fill="#FF4853"/>
<path d="M795.2 294.7C786.2 301.5 773.7 301.5 764.7 294.7L690.1 227.8C679.3 219.7 672.9 206.9 672.9 193.4V74.2H708.1V193.4C708.1 198.4 710.5 203.2 714.5 206.1L780.1 266.8L846.4 206.1C850.4 203.1 852.8 198.3 852.8 193.4V74.2H887.2V193.4C887.2 206.9 880.7 219.7 870 227.8L795.2 294.7Z" fill="#FF4853"/>
<path d="M522.2 67.9C588.8 67.9 634.7 115.6 634.7 184C634.7 251.9 588.8 300.1 522.2 300.1C456.1 300.1 410.2 252 410.2 184C410.1 115.6 456 67.9 522.2 67.9ZM522.2 269.1C569.4 269.1 600 234 600 184.1C600 133.7 569.4 99.1 522.2 99.1C475 99.1 444.4 135.1 444.4 184.1C444.3 235.3 474.9 269.1 522.2 269.1Z" fill="#FF4853"/>
<path d="M1105 293.8V259.4C1105 270.1 1085.6 300.4 1030 300.4C962.1 300.4 932.2 267.2 932.2 193.2V74.2H967.2V193.2C967.2 252.9 991.3 269.3 1030.4 269.3C1073.8 269.3 1104.1 242.9 1104.1 193.2V74.2H1138.7V293.8H1105Z" fill="#FF4853"/>
</svg>
