<svg width="300" height="128" viewBox="0 0 300 128" fill="none" xmlns="http://www.w3.org/2000/svg">
<path d="M0 19.521H8.89383V29.5973C11.5536 25.9912 15.016 23.0534 19.0071 21.0163C22.9983 18.9791 27.4088 17.8985 31.8897 17.8599C47.181 17.8599 59.3915 30.1903 59.3915 48.4455C59.3915 66.7007 47.1839 79.0282 31.8897 79.0282C26.4939 79.0172 21.2141 77.4608 16.6752 74.5433C13.7245 72.6231 11.1634 70.1624 9.12694 67.2908V101.075H0V19.521ZM50.1466 48.4367C50.1466 34.448 41.7308 26.03 29.7563 26.03C17.6578 26.03 9.1299 34.684 9.1299 48.4367C9.1299 62.0683 17.6667 70.8404 29.7563 70.8404C41.7308 70.8492 50.1466 62.3132 50.1466 48.4455V48.4367Z" fill="white"/>
<path d="M80.0296 27.225C81.3504 25.3722 82.9948 23.7729 84.8837 22.5041C88.2251 20.3103 92.1569 19.1893 96.153 19.2909H103.622V27.3489H94.2556C85.7188 27.3489 80.2656 31.9725 80.2656 41.9306V77.367H71.1357V19.5358H80.0266L80.0296 27.225Z" fill="white"/>
<path d="M137.583 17.8599C155.129 17.8599 167.221 30.4264 167.221 48.4455C167.221 66.3437 155.123 79.0282 137.583 79.0282C120.173 79.0282 108.074 66.3407 108.074 48.4455C108.066 30.4264 120.158 17.8599 137.583 17.8599ZM137.583 70.8492C150.032 70.8492 158.094 61.6021 158.094 48.4455C158.094 35.1679 150.032 26.0389 137.583 26.0389C125.133 26.0389 117.075 35.522 117.075 48.4455C117.075 61.9562 125.136 70.8492 137.583 70.8492Z" fill="white"/>
<path d="M209.513 77.603C208.352 78.4691 206.943 78.9371 205.495 78.9371C204.047 78.9371 202.638 78.4691 201.477 77.603L181.816 59.9822C180.409 58.9274 179.266 57.5601 178.477 55.9882C177.688 54.4162 177.276 52.6826 177.272 50.9239V19.521H186.537V50.9239C186.538 51.5758 186.69 52.2185 186.982 52.8013C187.274 53.3841 187.698 53.891 188.219 54.2817L205.494 70.2709L222.971 54.2817C223.492 53.8903 223.916 53.3834 224.207 52.8007C224.499 52.2181 224.652 51.5756 224.653 50.9239V19.521H233.727V50.9239C233.723 52.6822 233.31 54.4155 232.522 55.9873C231.734 57.5591 230.592 58.9266 229.186 59.9822L209.513 77.603Z" fill="white"/>
<path d="M201.896 1.20714e-05H221.334C222.194 1.20714e-05 223.02 0.341963 223.629 0.950637C224.238 1.55931 224.579 2.38485 224.579 3.24564V19.4738H198.642V3.24564C198.642 2.81867 198.726 2.39591 198.89 2.00155C199.053 1.6072 199.293 1.249 199.595 0.947504C199.898 0.646003 200.257 0.407114 200.652 0.244527C201.046 0.0819407 201.469 -0.00115239 201.896 1.20714e-05Z" fill="#00FF99"/>
<path d="M291.141 77.3582V68.2822C291.141 71.0912 286.034 79.0784 271.371 79.0784C253.495 79.0784 245.616 70.3358 245.616 50.8266V19.4974H254.837V50.8384C254.837 66.5709 261.188 70.8817 271.489 70.8817C282.92 70.8817 290.894 63.9301 290.894 50.8384V19.4974H300V77.3582H291.141Z" fill="white"/>
<path d="M156.932 122.357C155.62 122.386 154.323 122.073 153.169 121.449C152.104 120.853 151.232 119.966 150.655 118.89C150.043 117.714 149.739 116.401 149.77 115.075V114.73C149.738 113.398 150.042 112.078 150.655 110.894C151.227 109.825 152.089 108.938 153.143 108.336C154.255 107.717 155.511 107.404 156.784 107.427C158.012 107.403 159.226 107.696 160.307 108.28C161.326 108.845 162.159 109.692 162.706 110.72C163.306 111.87 163.605 113.153 163.574 114.45V115.491H152.045C152.104 117.014 152.596 118.204 153.52 119.062C154.464 119.926 155.708 120.387 156.988 120.348C158.199 120.348 159.134 120.069 159.791 119.51C160.434 118.966 160.948 118.284 161.293 117.516L163.258 118.469C162.937 119.114 162.534 119.716 162.06 120.26C161.505 120.892 160.826 121.403 160.065 121.761C159.08 122.196 158.008 122.4 156.932 122.357V122.357ZM152.074 113.603H161.266C161.187 112.293 160.741 111.272 159.921 110.54C159.054 109.788 157.934 109.395 156.787 109.44C155.626 109.393 154.49 109.786 153.606 110.54C152.742 111.342 152.198 112.431 152.074 113.603Z" fill="white"/>
<path d="M166.121 121.953V107.82H168.346V109.59H168.75C169.077 109.029 169.534 108.554 170.081 108.203C170.694 107.782 171.561 107.571 172.68 107.569C173.625 107.527 174.559 107.779 175.354 108.292C176 108.735 176.51 109.347 176.829 110.062H177.233C177.569 109.354 178.083 108.744 178.724 108.292C179.389 107.81 180.318 107.569 181.512 107.569C182.377 107.553 183.232 107.756 183.997 108.159C184.706 108.542 185.293 109.118 185.688 109.82C186.118 110.612 186.332 111.504 186.307 112.405V121.953H184.026V112.591C184.048 112.181 183.986 111.772 183.845 111.387C183.703 111.002 183.485 110.649 183.203 110.351C182.654 109.803 181.888 109.528 180.904 109.528C180.431 109.512 179.96 109.593 179.519 109.767C179.079 109.941 178.68 110.205 178.346 110.54C177.683 111.213 177.35 112.186 177.349 113.458V121.953H175.068V112.591C175.089 112.181 175.027 111.772 174.886 111.387C174.744 111.002 174.526 110.649 174.244 110.351C173.695 109.803 172.929 109.528 171.946 109.528C171.472 109.512 171.001 109.593 170.561 109.767C170.12 109.941 169.721 110.205 169.387 110.54C168.724 111.213 168.393 112.186 168.393 113.458V121.953H166.121Z" fill="white"/>
<path d="M189.526 127.733V107.82H191.751V110.16H192.156C192.577 109.386 193.185 108.73 193.926 108.254C194.742 107.695 195.883 107.416 197.349 107.416C198.526 107.403 199.685 107.712 200.701 108.307C201.716 108.903 202.551 109.764 203.115 110.797C203.752 111.996 204.067 113.34 204.027 114.698V115.072C204.064 116.426 203.76 117.768 203.142 118.973C202.591 120.023 201.754 120.894 200.728 121.487C199.702 122.069 198.54 122.368 197.361 122.354C196.511 122.376 195.664 122.244 194.862 121.965C194.247 121.747 193.682 121.408 193.2 120.968C192.81 120.608 192.478 120.188 192.218 119.725H191.825V127.73L189.526 127.733ZM196.753 120.336C197.412 120.362 198.07 120.25 198.684 120.009C199.298 119.768 199.855 119.402 200.321 118.935C201.235 118 201.693 116.695 201.693 115.019V114.757C201.693 113.081 201.235 111.776 200.321 110.841C199.855 110.374 199.298 110.008 198.684 109.767C198.07 109.526 197.412 109.414 196.753 109.44C196.094 109.418 195.437 109.531 194.823 109.772C194.209 110.013 193.651 110.377 193.182 110.841C192.248 111.776 191.781 113.081 191.781 114.757V115.019C191.781 116.695 192.248 118 193.182 118.935C193.651 119.399 194.209 119.763 194.823 120.004C195.437 120.245 196.094 120.358 196.753 120.336V120.336Z" fill="white"/>
<path d="M206.695 121.953V107.82H208.92V109.555H209.324C209.538 108.98 209.947 108.498 210.48 108.195C211.121 107.877 211.832 107.727 212.546 107.761H214.222V109.844H212.401C211.5 109.802 210.617 110.106 209.932 110.694C209.304 111.262 208.99 112.147 208.99 113.349V121.953H206.695Z" fill="white"/>
<path d="M222.095 122.357C220.785 122.385 219.491 122.072 218.338 121.449C217.273 120.853 216.401 119.966 215.824 118.89C215.212 117.714 214.908 116.401 214.939 115.075V114.73C214.907 113.397 215.212 112.078 215.824 110.894C216.395 109.824 217.258 108.937 218.312 108.336C219.424 107.717 220.68 107.403 221.953 107.427C223.182 107.402 224.396 107.696 225.477 108.28C226.495 108.845 227.328 109.692 227.876 110.72C228.475 111.87 228.774 113.153 228.743 114.45V115.491H217.202C217.261 117.014 217.753 118.204 218.678 119.062C219.622 119.926 220.866 120.387 222.145 120.348C223.359 120.348 224.293 120.069 224.948 119.51C225.592 118.966 226.105 118.284 226.45 117.515L228.416 118.468C228.094 119.114 227.692 119.716 227.217 120.259C226.662 120.891 225.983 121.402 225.223 121.761C224.239 122.195 223.169 122.399 222.095 122.357ZM217.241 113.603H226.43C226.353 112.293 225.905 111.272 225.087 110.54C224.22 109.789 223.1 109.396 221.953 109.44C220.792 109.393 219.656 109.786 218.772 110.54C217.907 111.342 217.363 112.43 217.241 113.603V113.603ZM220.419 105.917L222.647 101.987H225.391L222.617 105.917H220.419Z" fill="white"/>
<path d="M236.973 122.357C235.22 122.357 233.745 121.953 232.547 121.145C231.349 120.336 230.621 119.058 230.363 117.309L232.532 116.819C232.63 117.608 232.929 118.359 233.4 119C233.805 119.518 234.351 119.909 234.972 120.127C235.618 120.352 236.298 120.465 236.982 120.46C238.04 120.46 238.878 120.248 239.496 119.823C239.784 119.642 240.021 119.391 240.183 119.092C240.344 118.793 240.426 118.457 240.42 118.117C240.443 117.801 240.371 117.484 240.213 117.209C240.056 116.934 239.819 116.711 239.535 116.571C238.767 116.217 237.955 115.97 237.121 115.836L235.94 115.633C235.086 115.494 234.252 115.251 233.456 114.91C232.758 114.622 232.143 114.166 231.665 113.582C231.207 112.977 230.972 112.231 231.001 111.473C230.978 110.893 231.101 110.316 231.359 109.796C231.617 109.276 232.001 108.829 232.476 108.495C233.46 107.783 234.76 107.427 236.377 107.427C237.994 107.427 239.291 107.788 240.266 108.51C241.268 109.248 241.954 110.336 242.187 111.558L240.048 112.107C239.873 111.086 239.459 110.369 238.806 109.956C238.073 109.519 237.23 109.303 236.377 109.333C235.582 109.293 234.791 109.478 234.096 109.867C233.828 110.031 233.608 110.263 233.461 110.54C233.313 110.817 233.243 111.129 233.258 111.443C233.241 111.738 233.307 112.032 233.447 112.293C233.587 112.553 233.796 112.77 234.052 112.918C234.711 113.282 235.431 113.521 236.176 113.627L237.357 113.83C238.278 113.983 239.182 114.22 240.06 114.538C240.797 114.793 241.454 115.237 241.966 115.825C242.46 116.447 242.712 117.227 242.674 118.02C242.674 119.397 242.159 120.466 241.128 121.227C240.097 121.988 238.712 122.365 236.973 122.357Z" fill="white"/>
<path d="M249.957 121.953C249.62 121.989 249.28 121.949 248.961 121.837C248.642 121.725 248.352 121.544 248.111 121.306C247.871 121.069 247.686 120.781 247.57 120.463C247.455 120.145 247.411 119.805 247.443 119.469V109.817H243.196V107.82H247.443V102.804H249.726V107.82H254.35V109.815H249.726V119.121C249.726 119.711 250.022 119.988 250.565 119.988H253.716V121.953H249.957Z" fill="white"/>
<path d="M257.759 105.628C257.526 105.633 257.295 105.593 257.079 105.508C256.863 105.424 256.665 105.297 256.499 105.135C256.333 104.974 256.202 104.781 256.115 104.567C256.028 104.353 255.987 104.123 255.994 103.893C255.985 103.657 256.026 103.423 256.113 103.204C256.199 102.985 256.331 102.786 256.499 102.621C256.665 102.459 256.863 102.333 257.079 102.249C257.296 102.165 257.527 102.125 257.759 102.131C257.988 102.124 258.217 102.163 258.43 102.248C258.644 102.332 258.838 102.459 259.001 102.621C259.165 102.788 259.293 102.987 259.377 103.206C259.461 103.425 259.5 103.658 259.491 103.893C259.499 104.122 259.459 104.351 259.375 104.565C259.291 104.779 259.163 104.973 259.001 105.136C258.839 105.298 258.645 105.426 258.431 105.511C258.217 105.595 257.988 105.635 257.759 105.628V105.628ZM256.602 121.953V107.82H258.883V121.953H256.602Z" fill="white"/>
<path d="M262.235 121.953V107.82H264.463V109.59H264.867C265.194 109.029 265.649 108.554 266.195 108.203C266.811 107.782 267.678 107.571 268.798 107.569C269.742 107.526 270.675 107.779 271.468 108.292C272.113 108.736 272.623 109.348 272.944 110.062H273.348C273.68 109.356 274.188 108.746 274.823 108.292C275.49 107.811 276.417 107.569 277.612 107.569C278.478 107.553 279.333 107.756 280.1 108.159C280.809 108.541 281.394 109.117 281.787 109.82C282.22 110.612 282.435 111.504 282.41 112.405V121.953H280.126V112.591C280.148 112.181 280.086 111.772 279.944 111.387C279.803 111.002 279.585 110.649 279.303 110.351C278.754 109.803 277.989 109.528 277.007 109.528C276.534 109.511 276.062 109.592 275.622 109.766C275.182 109.941 274.782 110.204 274.449 110.54C273.786 111.213 273.453 112.186 273.451 113.458V121.953H271.203V112.591C271.224 112.181 271.163 111.772 271.021 111.387C270.88 111.002 270.661 110.649 270.379 110.351C269.831 109.803 269.065 109.528 268.084 109.528C267.61 109.511 267.139 109.592 266.699 109.766C266.258 109.941 265.859 110.204 265.525 110.54C264.862 111.213 264.53 112.186 264.528 113.458V121.953H262.235Z" fill="white"/>
<path d="M292.174 122.357C290.862 122.389 289.564 122.084 288.403 121.472C287.331 120.891 286.448 120.015 285.86 118.946C285.23 117.759 284.917 116.43 284.951 115.087V114.712C284.922 113.377 285.235 112.057 285.86 110.877C286.445 109.802 287.328 108.918 288.403 108.333C289.573 107.745 290.865 107.439 292.174 107.439C293.484 107.439 294.775 107.745 295.945 108.333C297.021 108.918 297.904 109.802 298.489 110.877C299.116 112.056 299.43 113.377 299.401 114.712V115.087C299.435 116.431 299.121 117.76 298.489 118.946C297.901 120.015 297.018 120.891 295.945 121.472C294.784 122.084 293.486 122.389 292.174 122.357ZM292.174 120.307C293.677 120.307 294.876 119.83 295.771 118.876C296.666 117.922 297.115 116.636 297.117 115.019V114.757C297.117 113.14 296.668 111.854 295.771 110.9C294.874 109.946 293.675 109.469 292.174 109.469C290.691 109.469 289.497 109.946 288.592 110.9C287.687 111.854 287.235 113.14 287.235 114.757V115.019C287.235 116.636 287.687 117.922 288.592 118.876C289.497 119.83 290.691 120.307 292.174 120.307V120.307Z" fill="white"/>
</svg>
